<?xml version="1.0" encoding="UTF-8" standalone="no"?>
<svg
   width="544.61999pt"
   height="172.003598pt"
   viewBox="0 0 544.61999 172.003598"
   version="1.1"
   id="svg216"
   sodipodi:docname="qft.svg"
   inkscape:version="1.2.2 (b0a8486541, 2022-12-01)"
   xmlns:inkscape="http://www.inkscape.org/namespaces/inkscape"
   xmlns:sodipodi="http://sodipodi.sourceforge.net/DTD/sodipodi-0.dtd"
   xmlns:xlink="http://www.w3.org/1999/xlink"
   xmlns="http://www.w3.org/2000/svg"
   xmlns:svg="http://www.w3.org/2000/svg"
   xmlns:rdf="http://www.w3.org/1999/02/22-rdf-syntax-ns#"
   xmlns:cc="http://creativecommons.org/ns#"
   xmlns:dc="http://purl.org/dc/elements/1.1/">
  <sodipodi:namedview
     id="namedview218"
     pagecolor="#505050"
     bordercolor="#eeeeee"
     borderopacity="1"
     inkscape:showpageshadow="0"
     inkscape:pageopacity="0"
     inkscape:pagecheckerboard="0"
     inkscape:deskcolor="#505050"
     inkscape:document-units="pt"
     showgrid="false"
     inkscape:zoom="1.8007537"
     inkscape:cx="444.25843"
     inkscape:cy="148.27125"
     inkscape:window-width="1920"
     inkscape:window-height="1011"
     inkscape:window-x="0"
     inkscape:window-y="32"
     inkscape:window-maximized="1"
     inkscape:current-layer="svg216" />
  <metadata
     id="metadata2">
    <rdf:RDF>
      <cc:Work>
        <dc:type
           rdf:resource="http://purl.org/dc/dcmitype/StillImage" />
        <dc:date>2023-11-12T18:41:34.335872</dc:date>
        <dc:format>image/svg+xml</dc:format>
        <dc:creator>
          <cc:Agent>
            <dc:title>Matplotlib v3.8.1, https://matplotlib.org/</dc:title>
          </cc:Agent>
        </dc:creator>
      </cc:Work>
    </rdf:RDF>
  </metadata>
  <defs
     id="defs6">
    <style
       type="text/css"
       id="style4">*{stroke-linejoin: round; stroke-linecap: butt}</style>
    <clipPath
       id="p772704db45">
      <rect
         x="7.1999998"
         y="7.1999998"
         width="102.81503"
         height="64.895599"
         id="rect649" />
    </clipPath>
    <clipPath
       id="p772704db45-2">
      <rect
         x="7.1999998"
         y="7.1999998"
         width="102.81503"
         height="64.895599"
         id="rect649-9" />
    </clipPath>
    <clipPath
       id="p122bca8595">
      <rect
         x="7.1999998"
         y="7.1999998"
         width="102.81503"
         height="64.895599"
         id="rect1210" />
    </clipPath>
  </defs>
  <g
     id="figure_1">
    <g
       id="patch_1">
      <path
         d="M 0 172.003598  L 544.61999 172.003598  L 544.61999 0  L 0 0  z "
         style="fill: #ffffff"
         id="path8" />
    </g>
    <g
       id="axes_1">
      <g
         id="line2d_1">
        <path
           d="M 64.609196 44.2832  L 532.78459 44.2832  "
           clip-path="url(#pdb57bb4459)"
           style="fill: none; stroke: #000000; stroke-width: 2; stroke-linecap: square"
           id="path11" />
      </g>
      <g
         id="line2d_2">
        <path
           d="M 64.609196 90.637199  L 532.78459 90.637199  "
           clip-path="url(#pdb57bb4459)"
           style="fill: none; stroke: #000000; stroke-width: 2; stroke-linecap: square"
           id="path14" />
      </g>
      <g
         id="line2d_3">
        <path
           d="M 64.609196 136.991198  L 532.78459 136.991198  "
           clip-path="url(#pdb57bb4459)"
           style="fill: none; stroke: #000000; stroke-width: 2; stroke-linecap: square"
           id="path17" />
      </g>
      <g
         id="line2d_4">
        <path
           d="M 159.171355 90.637199  L 159.171355 44.2832  "
           clip-path="url(#pdb57bb4459)"
           style="fill: none; stroke: #bb8bff; stroke-width: 2; stroke-linecap: square"
           id="path20" />
      </g>
      <g
         id="line2d_5">
        <path
           d="M 159.171355 90.637199  L 159.171355 44.2832  "
           clip-path="url(#pdb57bb4459)"
           style="fill: none; stroke: #bb8bff; stroke-width: 2; stroke-linecap: square"
           id="path23" />
      </g>
      <g
         id="line2d_6">
        <path
           d="M 251.879354 136.991198  L 251.879354 44.2832  "
           clip-path="url(#pdb57bb4459)"
           style="fill: none; stroke: #bb8bff; stroke-width: 2; stroke-linecap: square"
           id="path26" />
      </g>
      <g
         id="line2d_7">
        <path
           d="M 251.879354 136.991198  L 251.879354 44.2832  "
           clip-path="url(#pdb57bb4459)"
           style="fill: none; stroke: #bb8bff; stroke-width: 2; stroke-linecap: square"
           id="path29" />
      </g>
      <g
         id="line2d_8">
        <path
           d="M 390.941352 136.991198  L 390.941352 90.637199  "
           clip-path="url(#pdb57bb4459)"
           style="fill: none; stroke: #bb8bff; stroke-width: 2; stroke-linecap: square"
           id="path32" />
      </g>
      <g
         id="line2d_9">
        <path
           d="M 390.941352 136.991198  L 390.941352 90.637199  "
           clip-path="url(#pdb57bb4459)"
           style="fill: none; stroke: #bb8bff; stroke-width: 2; stroke-linecap: square"
           id="path35" />
      </g>
      <g
         id="line2d_10">
        <path
           d="M 506.826351 44.2832  L 506.826351 136.991198  "
           clip-path="url(#pdb57bb4459)"
           style="fill: none; stroke: #6fa4ff; stroke-width: 2; stroke-linecap: square"
           id="path38" />
      </g>
      <g
         id="line2d_11">
        <path
           d="M 500.800331 50.309219  L 512.852371 38.25718  "
           clip-path="url(#pdb57bb4459)"
           style="fill: none; stroke: #6fa4ff; stroke-width: 2; stroke-linecap: square"
           id="path41" />
      </g>
      <g
         id="line2d_12">
        <path
           d="M 500.800331 38.25718  L 512.852371 50.309219  "
           clip-path="url(#pdb57bb4459)"
           style="fill: none; stroke: #6fa4ff; stroke-width: 2; stroke-linecap: square"
           id="path44" />
      </g>
      <g
         id="line2d_13">
        <path
           d="M 500.800331 143.017218  L 512.852371 130.965178  "
           clip-path="url(#pdb57bb4459)"
           style="fill: none; stroke: #6fa4ff; stroke-width: 2; stroke-linecap: square"
           id="path47" />
      </g>
      <g
         id="line2d_14">
        <path
           d="M 500.800331 130.965178  L 512.852371 143.017218  "
           clip-path="url(#pdb57bb4459)"
           style="fill: none; stroke: #6fa4ff; stroke-width: 2; stroke-linecap: square"
           id="path50" />
      </g>
      <g
         id="patch_2">
        <path
           d="M 74.575306 59.348249  L 104.705406 59.348249  L 104.705406 29.21815  L 74.575306 29.21815  z "
           clip-path="url(#pdb57bb4459)"
           style="fill: #6fa4ff; stroke: #6fa4ff; stroke-width: 1.5; stroke-linejoin: miter"
           id="path53" />
      </g>
      <g
         id="patch_3">
        <path
           d="M 159.171355 95.156714  C 160.369945 95.156714 161.519604 94.680509 162.367135 93.832979  C 163.214666 92.985448 163.69087 91.835788 163.69087 90.637199  C 163.69087 89.43861 163.214666 88.28895 162.367135 87.441419  C 161.519604 86.593889 160.369945 86.117684 159.171355 86.117684  C 157.972766 86.117684 156.823106 86.593889 155.975576 87.441419  C 155.128045 88.28895 154.65184 89.43861 154.65184 90.637199  C 154.65184 91.835788 155.128045 92.985448 155.975576 93.832979  C 156.823106 94.680509 157.972766 95.156714 159.171355 95.156714  z "
           clip-path="url(#pdb57bb4459)"
           style="fill: #bb8bff; stroke: #bb8bff; stroke-width: 1.5; stroke-linejoin: miter"
           id="path56" />
      </g>
      <g
         id="patch_4">
        <path
           d="M 159.171355 48.802714  C 160.369945 48.802714 161.519604 48.32651 162.367135 47.478979  C 163.214666 46.631448 163.69087 45.481789 163.69087 44.2832  C 163.69087 43.08461 163.214666 41.934951 162.367135 41.08742  C 161.519604 40.239889 160.369945 39.763685 159.171355 39.763685  C 157.972766 39.763685 156.823106 40.239889 155.975576 41.08742  C 155.128045 41.934951 154.65184 43.08461 154.65184 44.2832  C 154.65184 45.481789 155.128045 46.631448 155.975576 47.478979  C 156.823106 48.32651 157.972766 48.802714 159.171355 48.802714  z "
           clip-path="url(#pdb57bb4459)"
           style="fill: #bb8bff; stroke: #bb8bff; stroke-width: 1.5; stroke-linejoin: miter"
           id="path59" />
      </g>
      <g
         id="patch_5">
        <path
           d="M 251.879354 141.510713  C 253.077943 141.510713 254.227603 141.034509 255.075134 140.186978  C 255.922664 139.339447 256.398869 138.189788 256.398869 136.991198  C 256.398869 135.792609 255.922664 134.642949 255.075134 133.795419  C 254.227603 132.947888 253.077943 132.471683 251.879354 132.471683  C 250.680765 132.471683 249.531105 132.947888 248.683574 133.795419  C 247.836044 134.642949 247.359839 135.792609 247.359839 136.991198  C 247.359839 138.189788 247.836044 139.339447 248.683574 140.186978  C 249.531105 141.034509 250.680765 141.510713 251.879354 141.510713  z "
           clip-path="url(#pdb57bb4459)"
           style="fill: #bb8bff; stroke: #bb8bff; stroke-width: 1.5; stroke-linejoin: miter"
           id="path62" />
      </g>
      <g
         id="patch_6">
        <path
           d="M 251.879354 48.802714  C 253.077943 48.802714 254.227603 48.32651 255.075134 47.478979  C 255.922664 46.631448 256.398869 45.481789 256.398869 44.2832  C 256.398869 43.08461 255.922664 41.934951 255.075134 41.08742  C 254.227603 40.239889 253.077943 39.763685 251.879354 39.763685  C 250.680765 39.763685 249.531105 40.239889 248.683574 41.08742  C 247.836044 41.934951 247.359839 43.08461 247.359839 44.2832  C 247.359839 45.481789 247.836044 46.631448 248.683574 47.478979  C 249.531105 48.32651 250.680765 48.802714 251.879354 48.802714  z "
           clip-path="url(#pdb57bb4459)"
           style="fill: #bb8bff; stroke: #bb8bff; stroke-width: 1.5; stroke-linejoin: miter"
           id="path65" />
      </g>
      <g
         id="patch_7">
        <path
           d="M 306.345303 105.702249  L 336.475403 105.702249  L 336.475403 75.572149  L 306.345303 75.572149  z "
           clip-path="url(#pdb57bb4459)"
           style="fill: #6fa4ff; stroke: #6fa4ff; stroke-width: 1.5; stroke-linejoin: miter"
           id="path68" />
      </g>
      <g
         id="patch_8">
        <path
           d="M 390.941352 141.510713  C 392.139942 141.510713 393.289601 141.034509 394.137132 140.186978  C 394.984662 139.339447 395.460867 138.189788 395.460867 136.991198  C 395.460867 135.792609 394.984662 134.642949 394.137132 133.795419  C 393.289601 132.947888 392.139942 132.471683 390.941352 132.471683  C 389.742763 132.471683 388.593103 132.947888 387.745572 133.795419  C 386.898042 134.642949 386.421837 135.792609 386.421837 136.991198  C 386.421837 138.189788 386.898042 139.339447 387.745572 140.186978  C 388.593103 141.034509 389.742763 141.510713 390.941352 141.510713  z "
           clip-path="url(#pdb57bb4459)"
           style="fill: #bb8bff; stroke: #bb8bff; stroke-width: 1.5; stroke-linejoin: miter"
           id="path71" />
      </g>
      <g
         id="patch_9">
        <path
           d="M 390.941352 95.156714  C 392.139942 95.156714 393.289601 94.680509 394.137132 93.832979  C 394.984662 92.985448 395.460867 91.835788 395.460867 90.637199  C 395.460867 89.43861 394.984662 88.28895 394.137132 87.441419  C 393.289601 86.593889 392.139942 86.117684 390.941352 86.117684  C 389.742763 86.117684 388.593103 86.593889 387.745572 87.441419  C 386.898042 88.28895 386.421837 89.43861 386.421837 90.637199  C 386.421837 91.835788 386.898042 92.985448 387.745572 93.832979  C 388.593103 94.680509 389.742763 95.156714 390.941352 95.156714  z "
           clip-path="url(#pdb57bb4459)"
           style="fill: #bb8bff; stroke: #bb8bff; stroke-width: 1.5; stroke-linejoin: miter"
           id="path74" />
      </g>
      <g
         id="patch_10">
        <path
           d="M 445.407301 152.056248  L 475.537401 152.056248  L 475.537401 121.926148  L 445.407301 121.926148  z "
           clip-path="url(#pdb57bb4459)"
           style="fill: #6fa4ff; stroke: #6fa4ff; stroke-width: 1.5; stroke-linejoin: miter"
           id="path77" />
      </g>
      <g
         id="text_1">
        <g
           clip-path="url(#pdb57bb4459)"
           id="g90">
          <!-- ${q}_{2}$ -->
          <g
             transform="translate(37.300897 48.734176) scale(0.1625 -0.1625)"
             id="g88">
            <defs
               id="defs82">
              <path
                 id="DejaVuSans-Oblique-71"
                 d="M 2669 525  Q 2438 222 2123 65  Q 1809 -91 1428 -91  Q 897 -91 595 267  Q 294 625 294 1253  Q 294 1759 480 2231  Q 666 2703 1013 3078  Q 1238 3322 1530 3453  Q 1822 3584 2144 3584  Q 2531 3584 2781 3431  Q 3031 3278 3144 2969  L 3244 3494  L 3822 3494  L 2888 -1319  L 2309 -1319  L 2669 525  z M 891 1338  Q 891 875 1084 633  Q 1278 391 1644 391  Q 2188 391 2572 911  Q 2956 1431 2956 2175  Q 2956 2625 2757 2864  Q 2559 3103 2188 3103  Q 1916 3103 1684 2976  Q 1453 2850 1281 2606  Q 1100 2350 995 2006  Q 891 1663 891 1338  z "
                 transform="scale(0.015625)" />
              <path
                 id="DejaVuSans-32"
                 d="M 1228 531  L 3431 531  L 3431 0  L 469 0  L 469 531  Q 828 903 1448 1529  Q 2069 2156 2228 2338  Q 2531 2678 2651 2914  Q 2772 3150 2772 3378  Q 2772 3750 2511 3984  Q 2250 4219 1831 4219  Q 1534 4219 1204 4116  Q 875 4013 500 3803  L 500 4441  Q 881 4594 1212 4672  Q 1544 4750 1819 4750  Q 2544 4750 2975 4387  Q 3406 4025 3406 3419  Q 3406 3131 3298 2873  Q 3191 2616 2906 2266  Q 2828 2175 2409 1742  Q 1991 1309 1228 531  z "
                 transform="scale(0.015625)" />
            </defs>
            <use
               xlink:href="#DejaVuSans-Oblique-71"
               id="use84" />
            <use
               xlink:href="#DejaVuSans-32"
               transform="translate(63.476562 -16.40625) scale(0.7)"
               id="use86" />
          </g>
        </g>
      </g>
      <g
         id="text_2">
        <g
           clip-path="url(#pdb57bb4459)"
           id="g102">
          <!-- ${q}_{1}$ -->
          <g
             transform="translate(37.300897 95.088175) scale(0.1625 -0.1625)"
             id="g100">
            <defs
               id="defs94">
              <path
                 id="DejaVuSans-31"
                 d="M 794 531  L 1825 531  L 1825 4091  L 703 3866  L 703 4441  L 1819 4666  L 2450 4666  L 2450 531  L 3481 531  L 3481 0  L 794 0  L 794 531  z "
                 transform="scale(0.015625)" />
            </defs>
            <use
               xlink:href="#DejaVuSans-Oblique-71"
               id="use96" />
            <use
               xlink:href="#DejaVuSans-31"
               transform="translate(63.476562 -16.40625) scale(0.7)"
               id="use98" />
          </g>
        </g>
      </g>
      <g
         id="text_3">
        <g
           clip-path="url(#pdb57bb4459)"
           id="g114">
          <!-- ${q}_{0}$ -->
          <g
             transform="translate(37.300897 141.442175) scale(0.1625 -0.1625)"
             id="g112">
            <defs
               id="defs106">
              <path
                 id="DejaVuSans-30"
                 d="M 2034 4250  Q 1547 4250 1301 3770  Q 1056 3291 1056 2328  Q 1056 1369 1301 889  Q 1547 409 2034 409  Q 2525 409 2770 889  Q 3016 1369 3016 2328  Q 3016 3291 2770 3770  Q 2525 4250 2034 4250  z M 2034 4750  Q 2819 4750 3233 4129  Q 3647 3509 3647 2328  Q 3647 1150 3233 529  Q 2819 -91 2034 -91  Q 1250 -91 836 529  Q 422 1150 422 2328  Q 422 3509 836 4129  Q 1250 4750 2034 4750  z "
                 transform="scale(0.015625)" />
            </defs>
            <use
               xlink:href="#DejaVuSans-Oblique-71"
               id="use108" />
            <use
               xlink:href="#DejaVuSans-30"
               transform="translate(63.476562 -16.40625) scale(0.7)"
               id="use110" />
          </g>
        </g>
      </g>
      <g
         id="text_4">
        <g
           clip-path="url(#pdb57bb4459)"
           id="g124">
          <!-- H -->
          <g
             transform="translate(84.752153 47.870387) scale(0.13 -0.13)"
             id="g122">
            <defs
               id="defs118">
              <path
                 id="DejaVuSans-48"
                 d="M 628 4666  L 1259 4666  L 1259 2753  L 3553 2753  L 3553 4666  L 4184 4666  L 4184 0  L 3553 0  L 3553 2222  L 1259 2222  L 1259 0  L 628 0  L 628 4666  z "
                 transform="scale(0.015625)" />
            </defs>
            <use
               xlink:href="#DejaVuSans-48"
               id="use120" />
          </g>
        </g>
      </g>
      <g
         id="text_5">
        <g
           clip-path="url(#pdb57bb4459)"
           id="g151">
          <!-- P ($\pi$/2) -->
          <g
             transform="translate(165.176495 66.585849) scale(0.08 -0.08)"
             id="g149">
            <defs
               id="defs133">
              <path
                 id="DejaVuSans-50"
                 d="M 1259 4147  L 1259 2394  L 2053 2394  Q 2494 2394 2734 2622  Q 2975 2850 2975 3272  Q 2975 3691 2734 3919  Q 2494 4147 2053 4147  L 1259 4147  z M 628 4666  L 2053 4666  Q 2838 4666 3239 4311  Q 3641 3956 3641 3272  Q 3641 2581 3239 2228  Q 2838 1875 2053 1875  L 1259 1875  L 1259 0  L 628 0  L 628 4666  z "
                 transform="scale(0.015625)" />
              <path
                 id="DejaVuSans-20"
                 transform="scale(0.015625)" />
              <path
                 id="DejaVuSans-28"
                 d="M 1984 4856  Q 1566 4138 1362 3434  Q 1159 2731 1159 2009  Q 1159 1288 1364 580  Q 1569 -128 1984 -844  L 1484 -844  Q 1016 -109 783 600  Q 550 1309 550 2009  Q 550 2706 781 3412  Q 1013 4119 1484 4856  L 1984 4856  z "
                 transform="scale(0.015625)" />
              <path
                 id="DejaVuSans-Oblique-3c0"
                 d="M 584 3500  L 3938 3500  L 3825 2925  L 3384 2925  L 2966 775  Q 2922 550 2981 450  Q 3038 353 3209 353  Q 3256 353 3325 363  Q 3397 369 3419 372  L 3338 -44  Q 3222 -84 3103 -103  Q 2981 -122 2866 -122  Q 2491 -122 2388 81  Q 2284 288 2391 838  L 2797 2925  L 1506 2925  L 938 0  L 350 0  L 919 2925  L 472 2925  L 584 3500  z "
                 transform="scale(0.015625)" />
              <path
                 id="DejaVuSans-2f"
                 d="M 1625 4666  L 2156 4666  L 531 -594  L 0 -594  L 1625 4666  z "
                 transform="scale(0.015625)" />
              <path
                 id="DejaVuSans-29"
                 d="M 513 4856  L 1013 4856  Q 1481 4119 1714 3412  Q 1947 2706 1947 2009  Q 1947 1309 1714 600  Q 1481 -109 1013 -844  L 513 -844  Q 928 -128 1133 580  Q 1338 1288 1338 2009  Q 1338 2731 1133 3434  Q 928 4138 513 4856  z "
                 transform="scale(0.015625)" />
            </defs>
            <use
               xlink:href="#DejaVuSans-20"
               transform="translate(60.302734 0.125)"
               id="use137" />
          </g>
        </g>
      </g>
      <g
         id="text_6">
        <g
           clip-path="url(#pdb57bb4459)"
           id="g173">
          <!-- P ($\pi$/4) -->
          <g
             transform="translate(257.764494 112.939849) scale(0.08 -0.08)"
             id="g171">
            <defs
               id="defs155">
              <path
                 id="DejaVuSans-34"
                 d="M 2419 4116  L 825 1625  L 2419 1625  L 2419 4116  z M 2253 4666  L 3047 4666  L 3047 1625  L 3713 1625  L 3713 1100  L 3047 1100  L 3047 0  L 2419 0  L 2419 1100  L 313 1100  L 313 1709  L 2253 4666  z "
                 transform="scale(0.015625)" />
            </defs>
            <use
               xlink:href="#DejaVuSans-20"
               transform="translate(60.302734 0.125)"
               id="use159" />
          </g>
        </g>
      </g>
      <g
         id="text_7">
        <g
           clip-path="url(#pdb57bb4459)"
           id="g180">
          <!-- H -->
          <g
             transform="translate(316.52215 94.224386) scale(0.13 -0.13)"
             id="g178">
            <use
               xlink:href="#DejaVuSans-48"
               id="use176" />
          </g>
        </g>
      </g>
      <g
         id="text_8">
        <g
           clip-path="url(#pdb57bb4459)"
           id="g199">
          <!-- P ($\pi$/2) -->
          <g
             transform="translate(396.946492 112.939849) scale(0.08 -0.08)"
             id="g197">
            <use
               xlink:href="#DejaVuSans-20"
               transform="translate(60.302734 0.125)"
               id="use185" />
          </g>
        </g>
      </g>
      <g
         id="text_9">
        <g
           clip-path="url(#pdb57bb4459)"
           id="g206">
          <!-- H -->
          <g
             transform="translate(455.584148 140.578386) scale(0.13 -0.13)"
             id="g204">
            <use
               xlink:href="#DejaVuSans-48"
               id="use202" />
          </g>
        </g>
      </g>
    </g>
  </g>
  <defs
     id="defs214">
    <clipPath
       id="pdb57bb4459">
      <rect
         x="7.2"
         y="7.2"
         width="530.21999"
         height="157.603598"
         id="rect211" />
    </clipPath>
  </defs>
  <path
     d="m 64.356335,59.348249 h 30.1301 V 29.21815 h -30.1301 z"
     clip-path="url(#p772704db45)"
     style="fill:#bb8bff;stroke:#bb8bff;stroke-width:1.5;stroke-linecap:butt;stroke-linejoin:miter"
     id="path608"
     transform="translate(80.095156,0.11550562)" />
  <use
     xlink:href="#DejaVuSans-Oblique-3c0"
     transform="matrix(0.08,0,0,-0.08,153.35655,55.582734)"
     id="use626"
     style="stroke-linecap:butt;stroke-linejoin:round" />
  <use
     xlink:href="#DejaVuSans-2f"
     transform="matrix(0.08,0,0,-0.08,158.17296,55.582734)"
     id="use628"
     style="stroke-linecap:butt;stroke-linejoin:round" />
  <use
     xlink:href="#DejaVuSans-32"
     transform="matrix(0.08,0,0,-0.08,160.57827,55.582734)"
     id="use630"
     style="stroke-linecap:butt;stroke-linejoin:round" />
  <use
     xlink:href="#DejaVuSans-50"
     id="use640"
     style="stroke-linecap:butt;stroke-linejoin:round"
     transform="matrix(0.13,0,0,-0.13,155.59725,43.466377)" />
  <path
     d="m 64.356335,59.348249 h 30.1301 V 29.21815 h -30.1301 z"
     clip-path="url(#p772704db45-2)"
     style="fill:#bb8bff;stroke:#bb8bff;stroke-width:1.5;stroke-linecap:butt;stroke-linejoin:miter"
     id="path608-1"
     transform="translate(311.66486,46.512117)" />
  <use
     xlink:href="#DejaVuSans-Oblique-3c0"
     transform="matrix(0.08,0,0,-0.08,384.92625,101.97934)"
     id="use626-2"
     style="stroke-linecap:butt;stroke-linejoin:round" />
  <use
     xlink:href="#DejaVuSans-2f"
     transform="matrix(0.08,0,0,-0.08,389.74266,101.97934)"
     id="use628-7"
     style="stroke-linecap:butt;stroke-linejoin:round" />
  <use
     xlink:href="#DejaVuSans-32"
     transform="matrix(0.08,0,0,-0.08,392.14797,101.97934)"
     id="use630-0"
     style="stroke-linecap:butt;stroke-linejoin:round" />
  <use
     xlink:href="#DejaVuSans-50"
     id="use640-9"
     style="stroke-linecap:butt;stroke-linejoin:round"
     transform="matrix(0.13,0,0,-0.13,387.16695,89.862991)" />
  <path
     d="m 64.356335,59.348249 h 30.1301 V 29.21815 h -30.1301 z"
     clip-path="url(#p122bca8595)"
     style="fill:#bb8bff;stroke:#bb8bff;stroke-width:1.5;stroke-linecap:butt;stroke-linejoin:miter"
     id="path1169"
     transform="translate(172.55644,0.28147403)" />
  <use
     xlink:href="#DejaVuSans-Oblique-3c0"
     transform="matrix(0.08,0,0,-0.08,245.65783,55.803704)"
     id="use1187"
     style="stroke-linecap:butt;stroke-linejoin:round" />
  <use
     xlink:href="#DejaVuSans-2f"
     transform="matrix(0.08,0,0,-0.08,250.47424,55.803704)"
     id="use1189"
     style="stroke-linecap:butt;stroke-linejoin:round" />
  <use
     xlink:href="#DejaVuSans-34"
     transform="matrix(0.08,0,0,-0.08,253.16955,55.803704)"
     id="use1191"
     style="stroke-linecap:butt;stroke-linejoin:round" />
  <use
     xlink:href="#DejaVuSans-50"
     id="use1201"
     style="stroke-linecap:butt;stroke-linejoin:round"
     transform="matrix(0.13,0,0,-0.13,248.05853,43.632344)" />
</svg>
